{"title":"Predators 2010 R5 LiNE H264 WRATH","uid":5851550,"size":1100721701,"categoryP":"video","categoryS":"movies","magnet":"?xt=urn:btih:31c436452b0dffdc7eb0678b0e807f25599af37e&amp;dn=Predators+2010+R5+LiNE+H264+WRATH&amp;tr=udp%3A%2F%2Ftracker.openbittorrent.com%3A80&amp;tr=udp%3A%2F%2Fopen.demonii.com%3A1337&amp;tr=udp%3A%2F%2Ftracker.coppersurfer.tk%3A6969&amp;tr=udp%3A%2F%2Fexodus.desync.com%3A6969","seeders":0,"leechers":0,"uploader":"hiest","files":-1,"time":1285403219,"description":"File Name\n\nPredators 2010 R5 LiNE H264.mp4\n\nFile Size\nFormat : MPEG-4\nFormat profile : Base Media\nCodec ID : isom\nFile size : 1.03 GiB\nDuration : 1h 42mn\nOverall bit rate : 1 432 Kbps\n\nVideo\nID : 1\nFormat : AVC\nFormat/Info : Advanced Video Codec\nFormat profile : &lt;a class=&quot;__cf_email__&quot; href=&quot;/cdn-cgi/l/email-protection&quot; data-cfemail=&quot;276f4e404f676b130916&quot;&gt;[email&amp;#160;protected]&lt;/a&gt;&lt;script data-cfhash='f9e31' type=&quot;text/javascript&quot;&gt;\n/* &lt;![CDATA[ */!function(){try{var t=&quot;currentScript&quot;in document?document.currentScript:function(){for(var t=document.getElementsByTagName(&quot;script&quot;),e=t.length;e--;)if(t[e].getAttribute(&quot;data-cfhash&quot;))return t[e]}();if(t&amp;&amp;t.previousSibling){var e,r,n,i,c=t.previousSibling,a=c.getAttribute(&quot;data-cfemail&quot;);if(a){for(e=&quot;&quot;,r=parseInt(a.substr(0,2),16),n=2;a.length-n;n+=2)i=parseInt(a.substr(n,2),16)^r,e+=String.fromCharCode(i);e=document.createTextNode(e),c.parentNode.replaceChild(e,c)}t.parentNode.removeChild(t);}}catch(u){}}()/* ]]&gt; */&lt;/script&gt;\nFormat settings, CABAC : Yes\nFormat settings, ReFrames : 3 frames\nCodec ID : avc1\nCodec ID/Info : Advanced Video Coding\nDuration : 1h 42mn\nBit rate mode : Variable\nBit rate : 1 300 Kbps\nMaximum bit rate : 9 178 Kbps\nWidth : 720 pixels\nHeight : 304 pixels\nDisplay aspect ratio : 2.35:1\nFrame rate mode : Constant\nFrame rate : 25.000 fps\nResolution : 24 bits\nColorimetry : 4:2:0\nScan type : Progressive\nBits/(Pixel*Frame) : 0.238\nStream size : 953 MiB (91%)\n\nAudio \nID : 2\nFormat : AAC\nFormat/Info : Advanced Audio Codec\nFormat version : Version 4\nFormat profile : LC\nFormat settings, SBR : No\nCodec ID : 40\nDuration : 1h 42mn\nBit rate mode : Variable\nBit rate : 128 Kbps\nMaximum bit rate : 133 Kbps\nChannel(s) : 2 channels\nChannel positions : L R\nSampling rate : 48.0 KHz\nResolution : 16 bits\nStream size : 93.8 MiB (9%)\n\nEnglish Subs : ----\n\nLanguage : English\n\n\n\n\n\n\n\n\n\n &lt;a href=&quot;\nhttp://www.imdb.com/title/tt1424381/&quot; rel=&quot;nofollow&quot; target=&quot;_NEW&quot;&gt;\nhttp://www.imdb.com/title/tt1424381/&lt;/a&gt;\n\n\n\nRelease Date: 9 July 2010 (USA) \n\nGenre: Action | Adventure | Sci-Fi | Thriller \n\nPlot: Chosen for their ability to kill without conscience, a group of killers, some trained and some who are not, must endeavour the alien race of predators that have set out to target them as prey. Dropped into the vast jungle of a distant world, these human predators must learn just who, or what, they are up against, and that their ability, knowledge and wits are tested to the limits in the battle of survival of kill or be killed.\n\nCast:\n\nAdrien Brody :Royce\nTopher Grace :Edwin\nAlice Braga :Isabelle\nWalton Goggins :Stans\nOleg Taktarov :Nikolai\nLaurence Fishburne :Noland\nDanny Trejo :Cuchillo\nLouis Ozawa Changchien :Hanzo\nMahershalalhashbaz Ali :Mombasa\nCarey Jones :Tracker Predator\nBrian Steele :Berserker Predator\n\n\n\n\n\n\n\n\n================================== &lt;a href=&quot;\nhttp://thepiratebay.se/user/hiest&quot; rel=&quot;nofollow&quot; target=&quot;_NEW&quot;&gt;\nhttp://thepiratebay.se/user/hiest&lt;/a&gt;\n==================================\n\n\n\n\n\n\n\n\n\nScreenshots:\n &lt;a href=&quot;\nhttp://postimg.com/image/22000/21858.jpg&quot; rel=&quot;nofollow&quot; target=&quot;_NEW&quot;&gt;\nhttp://postimg.com/image/22000/21858.jpg&lt;/a&gt;\n &lt;a href=&quot;\nhttp://postimg.com/image/22000/21859.jpg&quot; rel=&quot;nofollow&quot; target=&quot;_NEW&quot;&gt;\nhttp://postimg.com/image/22000/21859.jpg&lt;/a&gt;","torrent":{"xt":"urn:btih:31c436452b0dffdc7eb0678b0e807f25599af37e","amp;dn":"Predators+2010+R5+LiNE+H264+WRATH","amp;tr":["udp%3A%2F%2Ftracker.openbittorrent.com%3A80","udp%3A%2F%2Fopen.demonii.com%3A1337","udp%3A%2F%2Ftracker.coppersurfer.tk%3A6969","udp%3A%2F%2Fexodus.desync.com%3A6969"],"infoHash":"31c436452b0dffdc7eb0678b0e807f25599af37e","infoHashBuffer":{"type":"Buffer","data":[49,196,54,69,43,13,255,220,126,176,103,139,14,128,127,37,89,154,243,126]},"announce":[],"urlList":[]}}